<svg width="28" height="28" viewBox="0 0 28 28" fill="none" xmlns="http://www.w3.org/2000/svg">
<path fill-rule="evenodd" clip-rule="evenodd" d="M6.32309 21.6769C6.75388 22.1077 7.45419 22.1077 7.88498 21.6769L14 15.5619L20.115 21.6769C20.5458 22.1077 21.2461 22.1077 21.6769 21.6769C22.1077 21.2461 22.1077 20.5458 21.6769 20.115L15.5619 14L21.6769 7.88498C22.1077 7.45419 22.1077 6.75388 21.6769 6.32309C21.2461 5.8923 20.5458 5.8923 20.115 6.32309L14 12.4381L7.88498 6.32309C7.45419 5.8923 6.75388 5.8923 6.32309 6.32309C5.8923 6.75388 5.8923 7.45419 6.32309 7.88498L12.4381 14L6.32309 20.115C5.8923 20.5458 5.8923 21.2461 6.32309 21.6769Z" fill="black"/>
<mask id="mask0" mask-type="alpha" maskUnits="userSpaceOnUse" x="6" y="6" width="16" height="16">
<path fill-rule="evenodd" clip-rule="evenodd" d="M6.32309 21.6769C6.75388 22.1077 7.45419 22.1077 7.88498 21.6769L14 15.5619L20.115 21.6769C20.5458 22.1077 21.2461 22.1077 21.6769 21.6769C22.1077 21.2461 22.1077 20.5458 21.6769 20.115L15.5619 14L21.6769 7.88498C22.1077 7.45419 22.1077 6.75388 21.6769 6.32309C21.2461 5.8923 20.5458 5.8923 20.115 6.32309L14 12.4381L7.88498 6.32309C7.45419 5.8923 6.75388 5.8923 6.32309 6.32309C5.8923 6.75388 5.8923 7.45419 6.32309 7.88498L12.4381 14L6.32309 20.115C5.8923 20.5458 5.8923 21.2461 6.32309 21.6769Z" fill="white"/>
</mask>
<g mask="url(#mask0)">
</g>
</svg>
