<svg width="28" height="28" viewBox="0 0 28 28" fill="none" xmlns="http://www.w3.org/2000/svg">
<path fill-rule="evenodd" clip-rule="evenodd" d="M12.9934 20.1187C13.3876 20.5511 13.3934 21.2459 13.0001 21.6773C12.6096 22.1056 11.9813 22.111 11.5818 21.6727L5.29715 14.7793C4.90434 14.3485 4.89757 13.6573 5.29715 13.219L11.5818 6.32561C11.9746 5.89474 12.6069 5.88972 13.0001 6.32106C13.3906 6.74942 13.392 7.44245 12.9934 7.87964L8.41433 12.9023H21.9976C22.5513 12.9023 23.0001 13.3892 23.0001 13.9992C23.0001 14.605 22.5476 15.096 21.9976 15.096H8.41433L12.9934 20.1187Z" fill="black"/>
<mask id="mask0" mask-type="alpha" maskUnits="userSpaceOnUse" x="5" y="6" width="19" height="16">
<path fill-rule="evenodd" clip-rule="evenodd" d="M12.9934 20.1187C13.3876 20.5511 13.3934 21.2459 13.0001 21.6773C12.6096 22.1056 11.9813 22.111 11.5818 21.6727L5.29715 14.7793C4.90434 14.3485 4.89757 13.6573 5.29715 13.219L11.5818 6.32561C11.9746 5.89474 12.6069 5.88972 13.0001 6.32106C13.3906 6.74942 13.392 7.44245 12.9934 7.87964L8.41433 12.9023H21.9976C22.5513 12.9023 23.0001 13.3892 23.0001 13.9992C23.0001 14.605 22.5476 15.096 21.9976 15.096H8.41433L12.9934 20.1187Z" fill="white"/>
</mask>
<g mask="url(#mask0)">
</g>
</svg>
