<svg width="70" height="15" viewBox="0 0 70 15" fill="none" xmlns="http://www.w3.org/2000/svg">
<path d="M5.26 4.44C5.12667 4.24667 4.94667 4.10667 4.72 4.02C4.5 3.92667 4.26667 3.88 4.02 3.88C3.87333 3.88 3.73 3.89667 3.59 3.93C3.45667 3.96333 3.33333 4.01667 3.22 4.09C3.11333 4.16333 3.02667 4.26 2.96 4.38C2.89333 4.49333 2.86 4.63 2.86 4.79C2.86 5.03 2.94333 5.21333 3.11 5.34C3.27667 5.46667 3.48333 5.57667 3.73 5.67C3.97667 5.76333 4.24667 5.85333 4.54 5.94C4.83333 6.02667 5.10333 6.14667 5.35 6.3C5.59667 6.45333 5.80333 6.65667 5.97 6.91C6.13667 7.16333 6.22 7.5 6.22 7.92C6.22 8.3 6.15 8.63333 6.01 8.92C5.87 9.2 5.68 9.43333 5.44 9.62C5.20667 9.80667 4.93333 9.94667 4.62 10.04C4.30667 10.1333 3.97667 10.18 3.63 10.18C3.19 10.18 2.76667 10.1067 2.36 9.96C1.95333 9.81333 1.60333 9.56667 1.31 9.22L2.26 8.3C2.41333 8.53333 2.61333 8.71667 2.86 8.85C3.11333 8.97667 3.38 9.04 3.66 9.04C3.80667 9.04 3.95333 9.02 4.1 8.98C4.24667 8.94 4.38 8.88 4.5 8.8C4.62 8.72 4.71667 8.62 4.79 8.5C4.86333 8.37333 4.9 8.23 4.9 8.07C4.9 7.81 4.81667 7.61 4.65 7.47C4.48333 7.33 4.27667 7.21333 4.03 7.12C3.78333 7.02 3.51333 6.92667 3.22 6.84C2.92667 6.75333 2.65667 6.63667 2.41 6.49C2.16333 6.33667 1.95667 6.13667 1.79 5.89C1.62333 5.63667 1.54 5.3 1.54 4.88C1.54 4.51333 1.61333 4.19667 1.76 3.93C1.91333 3.66333 2.11 3.44333 2.35 3.27C2.59667 3.09 2.87667 2.95667 3.19 2.87C3.50333 2.78333 3.82333 2.74 4.15 2.74C4.52333 2.74 4.88333 2.79667 5.23 2.91C5.58333 3.02333 5.9 3.21 6.18 3.47L5.26 4.44ZM7.65278 2.92H8.91278V5.74H12.2228V2.92H13.4828V10H12.2228V6.88H8.91278V10H7.65278V2.92ZM14.8055 6.49C14.8055 5.92333 14.8988 5.41 15.0855 4.95C15.2721 4.48333 15.5288 4.08667 15.8555 3.76C16.1888 3.43333 16.5821 3.18333 17.0355 3.01C17.4955 2.83 17.9988 2.74 18.5455 2.74C19.0988 2.73333 19.6055 2.81667 20.0655 2.99C20.5255 3.15667 20.9221 3.40333 21.2555 3.73C21.5888 4.05667 21.8488 4.45 22.0355 4.91C22.2221 5.37 22.3155 5.88333 22.3155 6.45C22.3155 7.00333 22.2221 7.50667 22.0355 7.96C21.8488 8.41333 21.5888 8.80333 21.2555 9.13C20.9221 9.45667 20.5255 9.71333 20.0655 9.9C19.6055 10.08 19.0988 10.1733 18.5455 10.18C17.9988 10.18 17.4955 10.0933 17.0355 9.92C16.5821 9.74 16.1888 9.49 15.8555 9.17C15.5288 8.84333 15.2721 8.45333 15.0855 8C14.8988 7.54667 14.8055 7.04333 14.8055 6.49ZM16.1255 6.41C16.1255 6.79 16.1821 7.14 16.2955 7.46C16.4155 7.78 16.5821 8.05667 16.7955 8.29C17.0088 8.52333 17.2621 8.70667 17.5555 8.84C17.8555 8.97333 18.1888 9.04 18.5555 9.04C18.9221 9.04 19.2555 8.97333 19.5555 8.84C19.8555 8.70667 20.1121 8.52333 20.3255 8.29C20.5388 8.05667 20.7021 7.78 20.8155 7.46C20.9355 7.14 20.9955 6.79 20.9955 6.41C20.9955 6.05667 20.9355 5.72667 20.8155 5.42C20.7021 5.11333 20.5388 4.84667 20.3255 4.62C20.1121 4.38667 19.8555 4.20667 19.5555 4.08C19.2555 3.94667 18.9221 3.88 18.5555 3.88C18.1888 3.88 17.8555 3.94667 17.5555 4.08C17.2621 4.20667 17.0088 4.38667 16.7955 4.62C16.5821 4.84667 16.4155 5.11333 16.2955 5.42C16.1821 5.72667 16.1255 6.05667 16.1255 6.41ZM23.6361 2.92H26.0161C26.3561 2.92 26.6828 2.95333 26.9961 3.02C27.3161 3.08667 27.5961 3.2 27.8361 3.36C28.0761 3.51333 28.2661 3.72333 28.4061 3.99C28.5528 4.25 28.6261 4.57667 28.6261 4.97C28.6261 5.41667 28.5495 5.77667 28.3961 6.05C28.2428 6.32333 28.0361 6.53667 27.7761 6.69C27.5161 6.83667 27.2128 6.93667 26.8661 6.99C26.5261 7.04333 26.1695 7.07 25.7961 7.07H24.8961V10H23.6361V2.92ZM25.6561 5.99C25.8361 5.99 26.0228 5.98333 26.2161 5.97C26.4095 5.95667 26.5861 5.91667 26.7461 5.85C26.9128 5.78333 27.0461 5.68333 27.1461 5.55C27.2528 5.41667 27.3061 5.23 27.3061 4.99C27.3061 4.77 27.2595 4.59667 27.1661 4.47C27.0728 4.33667 26.9528 4.23667 26.8061 4.17C26.6595 4.09667 26.4961 4.05 26.3161 4.03C26.1361 4.01 25.9628 4 25.7961 4H24.8961V5.99H25.6561ZM32.9496 2.92H34.6196L38.0496 8.18H38.0696V2.92H39.3296V10H37.7296L34.2296 4.57H34.2096V10H32.9496V2.92ZM40.6492 6.49C40.6492 5.92333 40.7425 5.41 40.9292 4.95C41.1158 4.48333 41.3725 4.08667 41.6992 3.76C42.0325 3.43333 42.4258 3.18333 42.8792 3.01C43.3392 2.83 43.8425 2.74 44.3892 2.74C44.9425 2.73333 45.4492 2.81667 45.9092 2.99C46.3692 3.15667 46.7658 3.40333 47.0992 3.73C47.4325 4.05667 47.6925 4.45 47.8792 4.91C48.0658 5.37 48.1592 5.88333 48.1592 6.45C48.1592 7.00333 48.0658 7.50667 47.8792 7.96C47.6925 8.41333 47.4325 8.80333 47.0992 9.13C46.7658 9.45667 46.3692 9.71333 45.9092 9.9C45.4492 10.08 44.9425 10.1733 44.3892 10.18C43.8425 10.18 43.3392 10.0933 42.8792 9.92C42.4258 9.74 42.0325 9.49 41.6992 9.17C41.3725 8.84333 41.1158 8.45333 40.9292 8C40.7425 7.54667 40.6492 7.04333 40.6492 6.49ZM41.9692 6.41C41.9692 6.79 42.0258 7.14 42.1392 7.46C42.2592 7.78 42.4258 8.05667 42.6392 8.29C42.8525 8.52333 43.1058 8.70667 43.3992 8.84C43.6992 8.97333 44.0325 9.04 44.3992 9.04C44.7658 9.04 45.0992 8.97333 45.3992 8.84C45.6992 8.70667 45.9558 8.52333 46.1692 8.29C46.3825 8.05667 46.5458 7.78 46.6592 7.46C46.7792 7.14 46.8392 6.79 46.8392 6.41C46.8392 6.05667 46.7792 5.72667 46.6592 5.42C46.5458 5.11333 46.3825 4.84667 46.1692 4.62C45.9558 4.38667 45.6992 4.20667 45.3992 4.08C45.0992 3.94667 44.7658 3.88 44.3992 3.88C44.0325 3.88 43.6992 3.94667 43.3992 4.08C43.1058 4.20667 42.8525 4.38667 42.6392 4.62C42.4258 4.84667 42.2592 5.11333 42.1392 5.42C42.0258 5.72667 41.9692 6.05667 41.9692 6.41ZM48.6898 2.92H50.0698L51.3998 8.02H51.4198L53.0098 2.92H54.2498L55.8098 8.02H55.8298L57.2198 2.92H58.4998L56.4398 10H55.2398L53.5998 4.61H53.5798L51.9398 10H50.7798L48.6898 2.92Z" fill="black"/>
<path fill-rule="evenodd" clip-rule="evenodd" d="M64.6445 3.22393L67.8338 5.61596C67.9342 5.69125 67.9933 5.80941 67.9933 5.9349C67.9933 6.06038 67.9342 6.17854 67.8338 6.25383L64.6445 8.64586C64.5235 8.73661 64.3615 8.75107 64.2264 8.68321C64.0912 8.61535 64.0061 8.47684 64.0066 8.32559V3.54154C64.0071 3.39078 64.0926 3.25319 64.2276 3.18599C64.3625 3.11879 64.5239 3.13347 64.6445 3.22393Z" fill="black"/>
<path d="M1 14H67.4941" stroke="black" stroke-linecap="square"/>
</svg>
