<svg width="68" height="12" viewBox="0 0 68 12" fill="none" xmlns="http://www.w3.org/2000/svg">
<path fill-rule="evenodd" clip-rule="evenodd" d="M46.5894 0.159996H61.4106C62.6587 0.159996 63.1113 0.289952 63.5676 0.533982C64.0239 0.778012 64.382 1.13612 64.626 1.59241C64.87 2.04871 65 2.50131 65 3.74944V8.07056C65 9.31868 64.87 9.77128 64.626 10.2276C64.382 10.6839 64.0239 11.042 63.5676 11.286C63.1113 11.53 62.6587 11.66 61.4106 11.66H46.5894C45.3413 11.66 44.8887 11.53 44.4324 11.286C43.9761 11.042 43.618 10.6839 43.374 10.2276C43.13 9.77128 43 9.31868 43 8.07056V3.74944C43 2.50131 43.13 2.04871 43.374 1.59241C43.618 1.13612 43.9761 0.778012 44.4324 0.533982C44.8887 0.289952 45.3413 0.159996 46.5894 0.159996ZM46.5894 1.16C45.6025 1.16 45.2579 1.22653 44.904 1.41579C44.622 1.56663 44.4066 1.78198 44.2558 2.06401C44.0665 2.4179 44 2.76246 44 3.74944V8.07056C44 9.05754 44.0665 9.40209 44.2558 9.75598C44.4066 10.038 44.622 10.2534 44.904 10.4042C45.2579 10.5935 45.6025 10.66 46.5894 10.66H61.4106C62.3975 10.66 62.7421 10.5935 63.096 10.4042C63.378 10.2534 63.5934 10.038 63.7442 9.75598C63.9335 9.40209 64 9.05754 64 8.07056V3.74944C64 2.76246 63.9335 2.4179 63.7442 2.06401C63.5934 1.78198 63.378 1.56663 63.096 1.41579C62.7421 1.22653 62.3975 1.16 61.4106 1.16H46.5894ZM67.5 5.85C67.5 7.08657 66 7.85 66 7.85V3.85C66 3.85 67.5 4.61343 67.5 5.85Z" fill="black" fill-opacity="0.36"/>
<rect x="45" y="2.07666" width="18" height="7.66667" rx="1.6" fill="black"/>
<path fill-rule="evenodd" clip-rule="evenodd" d="M14.623 1.56589C14.6 1.68181 14.6 1.8212 14.6 2.1V9.8C14.6 10.0788 14.6 10.2182 14.623 10.3341C14.7177 10.8101 15.0899 11.1823 15.5659 11.2769C15.6818 11.3 15.8212 11.3 16.1 11.3C16.3788 11.3 16.5182 11.3 16.6341 11.2769C17.1101 11.1823 17.4822 10.8101 17.5769 10.3341C17.6 10.2182 17.6 10.0788 17.6 9.8V2.1C17.6 1.82121 17.6 1.68181 17.5769 1.56589C17.4822 1.08986 17.1101 0.717744 16.6341 0.623056C16.5182 0.599998 16.3788 0.599998 16.1 0.599998C15.8212 0.599998 15.6818 0.599998 15.5659 0.623056C15.0899 0.717744 14.7177 1.08986 14.623 1.56589ZM9.89999 4.5C9.89999 4.22121 9.89999 4.08181 9.92305 3.96589C10.0177 3.48986 10.3899 3.11775 10.8659 3.02306C10.9818 3 11.1212 3 11.4 3C11.6788 3 11.8182 3 11.9341 3.02306C12.4101 3.11775 12.7822 3.48986 12.8769 3.96589C12.9 4.08181 12.9 4.22121 12.9 4.5V9.8C12.9 10.0788 12.9 10.2182 12.8769 10.3341C12.7822 10.8101 12.4101 11.1823 11.9341 11.2769C11.8182 11.3 11.6788 11.3 11.4 11.3C11.1212 11.3 10.9818 11.3 10.8659 11.2769C10.3899 11.1823 10.0177 10.8101 9.92305 10.3341C9.89999 10.2182 9.89999 10.0788 9.89999 9.8V4.5ZM5.32305 6.26589C5.29999 6.38181 5.29999 6.52121 5.29999 6.8V9.8C5.29999 10.0788 5.29999 10.2182 5.32305 10.3341C5.41773 10.8101 5.78985 11.1823 6.26588 11.2769C6.3818 11.3 6.52119 11.3 6.79999 11.3C7.07878 11.3 7.21818 11.3 7.3341 11.2769C7.81012 11.1823 8.18224 10.8101 8.27693 10.3341C8.29999 10.2182 8.29999 10.0788 8.29999 9.8V6.8C8.29999 6.52121 8.29999 6.38181 8.27693 6.26589C8.18224 5.78987 7.81012 5.41775 7.3341 5.32306C7.21818 5.3 7.07878 5.3 6.79999 5.3C6.52119 5.3 6.3818 5.3 6.26588 5.32306C5.78985 5.41775 5.41773 5.78987 5.32305 6.26589ZM0.523058 8.26589C0.5 8.38181 0.5 8.52121 0.5 8.8V9.8C0.5 10.0788 0.5 10.2182 0.523058 10.3341C0.617746 10.8101 0.989863 11.1823 1.46589 11.2769C1.58181 11.3 1.72121 11.3 2 11.3C2.27879 11.3 2.41819 11.3 2.53411 11.2769C3.01014 11.1823 3.38225 10.8101 3.47694 10.3341C3.5 10.2182 3.5 10.0788 3.5 9.8V8.8C3.5 8.52121 3.5 8.38181 3.47694 8.26589C3.38225 7.78987 3.01014 7.41775 2.53411 7.32306C2.41819 7.3 2.27879 7.3 2 7.3C1.72121 7.3 1.58181 7.3 1.46589 7.32306C0.989863 7.41775 0.617746 7.78987 0.523058 8.26589Z" fill="black"/>
<path fill-rule="evenodd" clip-rule="evenodd" d="M30.3005 2.69636C32.5349 2.69646 34.6839 3.55501 36.3033 5.09457C36.4252 5.21343 36.6201 5.21193 36.7402 5.09121L37.9059 3.91479C37.9667 3.85356 38.0006 3.77062 38.0001 3.68432C37.9996 3.59803 37.9647 3.51549 37.9032 3.45498C33.6529 -0.618329 26.9475 -0.618329 22.6972 3.45498C22.6356 3.51545 22.6007 3.59796 22.6001 3.68426C22.5995 3.77055 22.6334 3.85351 22.6941 3.91479L23.8601 5.09121C23.9802 5.21211 24.1752 5.21361 24.2971 5.09457C25.9167 3.55491 28.0659 2.69635 30.3005 2.69636V2.69636ZM30.3005 6.52374C31.5282 6.52367 32.712 6.97998 33.622 7.80402C33.7451 7.92097 33.939 7.91844 34.059 7.79831L35.2233 6.62189C35.2846 6.56018 35.3186 6.47647 35.3178 6.38949C35.3169 6.3025 35.2812 6.2195 35.2186 6.15905C32.4474 3.58131 28.1559 3.58131 25.3848 6.15905C25.3222 6.2195 25.2865 6.30254 25.2857 6.38956C25.2848 6.47657 25.319 6.56027 25.3804 6.62189L26.5444 7.79831C26.6644 7.91844 26.8583 7.92097 26.9813 7.80402C27.8908 6.98053 29.0737 6.52425 30.3005 6.52374V6.52374ZM32.5381 9.33135C32.6003 9.27023 32.6346 9.18613 32.6328 9.0989C32.6311 9.01167 32.5934 8.92905 32.5286 8.87053C31.2424 7.78263 29.3586 7.78263 28.0724 8.87053C28.0076 8.929 27.9699 9.0116 27.968 9.09883C27.9662 9.18606 28.0004 9.27019 28.0626 9.33135L30.077 11.3639C30.136 11.4236 30.2165 11.4572 30.3005 11.4572C30.3845 11.4572 30.465 11.4236 30.524 11.3639L32.5381 9.33135Z" fill="black"/>
</svg>
